:FULLY-SPECIFIED
:FORCE-ALL-JOINTS-BE-3DOF
:DEGREES
815
root 2.15592 16.617 22.7622 2.25593 9.07959 -4.67008
lfemur -39.3374 0.135237 -7.10638
ltibia 37.4695 -0 0
lfoot -10.1714 -2.97952 -0.0263748
ltoes 8.83136 -0 0
rfemur -4.70332 -1.75794 17.3516
rtibia 37.9749 -0 0
rfoot -15.0949 -6.09471 0.946214
rtoes -23.2248 0 0
lowerback 1.19761 5.14959 4.04915
upperback -0.193399 6.90949 -0.484769
thorax -0.349224 3.4526 -2.8072
lowerneck -6.07192 -2.64579 2.37047
upperneck 0.878195 -3.74483 1.59284
head 1.30499 -1.81209 -0.0216735
lclavicle -1.0297e-013 -9.14409e-015 0
lhumerus -54.3745 -6.75631 90.846
lradius 57.1633 -0 0
lwrist 21.1108 0 0
lhand -10.5079 3.87437 0.0348065
lfingers 7.12502 -0 0
lthumb 15.4915 33.2318 0.0222082
rclavicle -1.0297e-013 -9.14409e-015 0
rhumerus -32.0741 41.0542 -105.859
rradius 66.6145 -0 0
rwrist 2.93349 0 0
rhand -19.7226 -26.7898 -0.107377
rfingers 7.12502 -0 0
rthumb 6.60659 -56.6253 -0.1006
816
root 2.20986 16.6006 22.9375 2.03618 8.55536 -4.70092
lfemur -38.9478 0.0781488 -7.10959
ltibia 37.2487 -0 0
lfoot -9.79166 -3.02278 -0.0283831
ltoes 8.36776 -0 0
rfemur -4.5335 -2.01198 16.9272
rtibia 38.8468 -0 0
rfoot -14.0629 -5.52361 1.01872
rtoes -23.7475 0 0
lowerback 1.05853 5.19098 3.98466
upperback -0.229554 6.95774 -0.41843
thorax -0.322417 3.4774 -2.69199
lowerneck -6.06798 -2.66061 2.419
upperneck 1.18405 -3.77599 1.5758
head 1.40344 -1.82229 -0.0399347
lclavicle -1.0297e-013 -9.14409e-015 0
lhumerus -54.4311 -6.58469 90.6399
lradius 56.9259 -0 0
lwrist 20.8903 0 0
lhand -10.2177 3.94905 0.037456
lfingers 7.12502 -0 0
lthumb 15.7708 33.2813 0.0238986
rclavicle -1.0297e-013 -9.14409e-015 0
rhumerus -31.9937 40.5208 -104.814
rradius 66.2729 -0 0
rwrist 3.01509 0 0
rhand -20.0388 -26.5783 -0.115553
rfingers 7.12502 -0 0
rthumb 6.30129 -56.4201 -0.10826
817
root 2.2638 16.5842 23.1128 1.81701 8.03102 -4.72968
lfemur -38.5582 0.0210836 -7.11319
ltibia 37.0279 -0 0
lfoot -9.41197 -3.06605 -0.0301046
ltoes 7.90415 -0 0
rfemur -4.36177 -2.26475 16.5019
rtibia 39.7187 -0 0
rfoot -13.0303 -4.95129 1.08092
rtoes -24.2703 0 0
lowerback 0.919405 5.2322 3.92007
upperback -0.265658 7.00604 -0.352115
thorax -0.295561 3.50215 -2.57677
lowerneck -6.06404 -2.67543 2.46752
upperneck 1.48993 -3.80706 1.55861
head 1.50189 -1.83246 -0.0582136
lclavicle -1.0297e-013 -9.14409e-015 0
lhumerus -54.4883 -6.41327 90.4338
lradius 56.6884 -0 0
lwrist 20.6699 0 0
lhand -9.92741 4.02374 0.0397271
lfingers 7.12502 -0 0
lthumb 16.0501 33.3308 0.0253476
rclavicle -1.0297e-013 -9.14409e-015 0
rhumerus -31.9266 39.9863 -103.779
rradius 65.9312 -0 0
rwrist 3.0967 0 0
rhand -20.355 -26.3668 -0.122562
rfingers 7.12502 -0 0
rthumb 5.99597 -56.2148 -0.114826
818
root 2.31774 16.5678 23.2881 1.59838 7.50657 -4.75639
lfemur -38.1685 -0.0359557 -7.11718
ltibia 36.8071 -0 0
lfoot -9.03227 -3.10933 -0.0315393
ltoes 7.44055 -0 0
rfemur -4.18814 -2.51625 16.0759
rtibia 40.5906 -0 0
rfoot -11.997 -4.37793 1.1328
rtoes -24.793 0 0
lowerback 0.78022 5.27327 3.85537
upperback -0.301708 7.05438 -0.285823
thorax -0.268653 3.52684 -2.46153
lowerneck -6.06012 -2.69026 2.51604
upperneck 1.79584 -3.83803 1.54124
head 1.60034 -1.8426 -0.07651
lclavicle -1.0297e-013 -9.14409e-015 0
lhumerus -54.5462 -6.24206 90.2275
lradius 56.451 -0 0
lwrist 20.4494 0 0
lhand -9.63715 4.09845 0.0416199
lfingers 7.12502 -0 0
lthumb 16.3294 33.3803 0.0265552
rclavicle -1.0297e-013 -9.14409e-015 0
rhumerus -31.8726 39.451 -102.753
rradius 65.5895 -0 0
rwrist 3.17831 0 0
rhand -20.6712 -26.1552 -0.128403
rfingers 7.12502 -0 0
rthumb 5.69063 -56.0095 -0.120298
819
root 2.37168 16.5514 23.4634 1.38025 6.98202 -4.78104
lfemur -37.7789 -0.0929666 -7.12156
ltibia 36.5863 -0 0
lfoot -8.65258 -3.15263 -0.0326872
ltoes 6.97695 -0 0
rfemur -4.0126 -2.76644 15.649
rtibia 41.4625 -0 0
rfoot -10.9632 -3.80371 1.17432
rtoes -25.3158 0 0
lowerback 0.640981 5.31418 3.79057
upperback -0.337706 7.10276 -0.219555
thorax -0.241696 3.55148 -2.34628
lowerneck -6.05622 -2.70509 2.56456
upperneck 2.10176 -3.86892 1.52371
head 1.6988 -1.8527 -0.0948239
lclavicle -1.0297e-013 -9.14409e-015 0
lhumerus -54.6046 -6.07106 90.0211
lradius 56.2135 -0 0
lwrist 20.2289 0 0
lhand -9.34689 4.17316 0.0431341
lfingers 7.12502 -0 0
lthumb 16.6087 33.4299 0.0275213
rclavicle -1.0297e-013 -9.14409e-015 0
rhumerus -31.8313 38.9151 -101.735
rradius 65.2478 -0 0
rwrist 3.25992 0 0
rhand -20.9875 -25.9436 -0.133076
rfingers 7.12502 -0 0
rthumb 5.38527 -55.8042 -0.124676
820
root 2.42562 16.535 23.6387 1.16259 6.45739 -4.80366
lfemur -37.3893 -0.149946 -7.12633
ltibia 36.3654 -0 0
lfoot -8.27288 -3.19593 -0.0335481
ltoes 6.51334 -0 0
rfemur -3.83516 -3.01532 15.2212
rtibia 42.3344 -0 0
rfoot -9.92907 -3.22884 1.20549
rtoes -25.8385 0 0
lowerback 0.501685 5.35494 3.72566
upperback -0.373652 7.15118 -0.153311
thorax -0.214688 3.57607 -2.23102
lowerneck -6.05232 -2.71992 2.61308
upperneck 2.4077 -3.89971 1.50601
head 1.79726 -1.86278 -0.113155
lclavicle -1.0297e-013 -9.14409e-015 0
lhumerus -54.6637 -5.90027 89.8147
lradius 55.976 -0 0
lwrist 20.0085 0 0
lhand -9.05662 4.24788 0.0442698
lfingers 7.12502 -0 0
lthumb 16.888 33.4794 0.0282459
rclavicle -1.0297e-013 -9.14409e-015 0
rhumerus -31.8025 38.3786 -100.725
rradius 64.9062 -0 0
rwrist 3.34152 0 0
rhand -21.3038 -25.732 -0.136581
rfingers 7.12502 -0 0
rthumb 5.0799 -55.5989 -0.127959
821
root 2.47956 16.5186 23.814 0.945344 5.93267 -4.82426
lfemur -36.9997 -0.206892 -7.13148
ltibia 36.1446 -0 0
lfoot -7.89319 -3.23923 -0.0341221
ltoes 6.04974 -0 0
rfemur -3.65583 -3.26287 14.7926
rtibia 43.2063 -0 0
rfoot -8.89465 -2.65348 1.22627
rtoes -26.3613 0 0
lowerback 0.362334 5.39554 3.66065
upperback -0.409544 7.19964 -0.08709
thorax -0.187629 3.6006 -2.11573
lowerneck -6.04844 -2.73476 2.66159
upperneck 2.71366 -3.9304 1.48815
head 1.89572 -1.87282 -0.131504
lclavicle -1.0297e-013 -9.14409e-015 0
lhumerus -54.7233 -5.72969 89.6081
lradius 55.7386 -0 0
lwrist 19.788 0 0
lhand -8.76635 4.32261 0.045027
lfingers 7.12502 -0 0
lthumb 17.1673 33.529 0.028729
rclavicle -1.0297e-013 -9.14409e-015 0
rhumerus -31.7859 37.8419 -99.7224
rradius 64.5645 -0 0
rwrist 3.42313 0 0
rhand -21.6201 -25.5203 -0.138918
rfingers 7.12502 -0 0
rthumb 4.77452 -55.3935 -0.130148
822
root 2.5335 16.5022 23.9893 0.728489 5.40788 -4.84283
lfemur -36.61 -0.263802 -7.13702
ltibia 35.9238 -0 0
lfoot -7.51349 -3.28254 -0.0344091
ltoes 5.58613 -0 0
rfemur -3.47459 -3.50907 14.363
rtibia 44.0782 -0 0
rfoot -7.86008 -2.07785 1.23666
rtoes -26.884 0 0
lowerback 0.222927 5.43598 3.59554
upperback -0.445385 7.24815 -0.0208928
thorax -0.160521 3.62508 -2.00044
lowerneck -6.04457 -2.7496 2.71011
upperneck 3.01964 -3.961 1.47012
head 1.99419 -1.88283 -0.14987
lclavicle -1.0297e-013 -9.14409e-015 0
lhumerus -54.7836 -5.55932 89.4014
lradius 55.5011 -0 0
lwrist 19.5675 0 0
lhand -8.47608 4.39734 0.0454056
lfingers 7.12502 -0 0
lthumb 17.4466 33.5785 0.0289705
rclavicle -1.0297e-013 -9.14409e-015 0
rhumerus -31.7812 37.305 -98.7275
rradius 64.2228 -0 0
rwrist 3.50474 0 0
rhand -21.9364 -25.3087 -0.140086
rfingers 7.12502 -0 0
rthumb 4.46913 -55.1882 -0.131243
823
root 2.58743 16.4857 24.1645 0.511983 4.88302 -4.8594
lfemur -36.2204 -0.320673 -7.14295
ltibia 35.703 -0 0
lfoot -7.1338 -3.32584 -0.0344091
ltoes 5.12253 -0 0
rfemur -3.29147 -3.75391 13.9326
rtibia 44.9502 -0 0
rfoot -6.82545 -1.50211 1.23666
rtoes -27.4068 0 0
lowerback 0.0834653 5.47626 3.53032
upperback -0.481172 7.29669 0.0452809
thorax -0.133363 3.6495 -1.88513
lowerneck -6.04071 -2.76444 2.75863
upperneck 3.32565 -3.99151 1.45193
head 2.09266 -1.89281 -0.168253
lclavicle -1.0297e-013 -9.14409e-015 0
lhumerus -54.8444 -5.38918 89.1945
lradius 55.2637 -0 0
lwrist 19.3471 0 0
lhand -8.18582 4.47206 0.0454056
lfingers 7.12502 -0 0
lthumb 17.7259 33.6281 0.0289705
rclavicle -1.0297e-013 -9.14409e-015 0
rhumerus -31.7881 36.7681 -97.7398
rradius 63.8812 -0 0
rwrist 3.58634 0 0
rhand -22.2526 -25.097 -0.140086
rfingers 7.12502 -0 0
rthumb 4.16374 -54.9828 -0.131243
824
root 2.64137 16.4693 24.3398 0.295789 4.35811 -4.87396
lfemur -35.8307 -0.377502 -7.14926
ltibia 35.4822 -0 0
lfoot -6.7541 -3.36915 -0.0341221
ltoes 4.65892 -0 0
rfemur -3.10645 -3.99736 13.5013
rtibia 45.8221 -0 0
rfoot -5.79088 -0.926477 1.22627
rtoes -27.9295 0 0
lowerback -0.0560522 5.51639 3.465
upperback -0.516907 7.34528 0.111431
thorax -0.106154 3.67387 -1.7698
lowerneck -6.03687 -2.77929 2.80715
upperneck 3.63167 -4.02191 1.43358
head 2.19114 -1.90276 -0.186654
lclavicle -1.0297e-013 -9.14409e-015 0
lhumerus -54.9059 -5.21925 88.9876
lradius 55.0262 -0 0
lwrist 19.1266 0 0
lhand -7.89555 4.54679 0.045027
lfingers 7.12502 -0 0
lthumb 18.0052 33.6776 0.028729
rclavicle -1.0297e-013 -9.14409e-015 0
rhumerus -31.8065 36.2314 -96.7587
rradius 63.5395 -0 0
rwrist 3.66795 0 0
rhand -22.5689 -24.8854 -0.138918
rfingers 7.12502 -0 0
rthumb 3.85835 -54.7775 -0.130148
825
root 2.69531 16.4529 24.5151 0.0798712 3.83314 -4.88654
lfemur -35.441 -0.434287 -7.15596
ltibia 35.2614 -0 0
lfoot -6.37441 -3.41245 -0.0335481
ltoes 4.19532 -0 0
rfemur -2.91955 -4.23942 13.0691
rtibia 46.694 -0 0
rfoot -4.75646 -0.351125 1.20549
rtoes -28.4523 0 0
lowerback -0.195625 5.55635 3.39958
upperback -0.552589 7.39391 0.177558
thorax -0.078896 3.69818 -1.65447
lowerneck -6.03304 -2.79413 2.85567
upperneck 3.93772 -4.05222 1.41506
head 2.28962 -1.91267 -0.205072
lclavicle -1.0297e-013 -9.14409e-015 0
lhumerus -54.9679 -5.04955 88.7805
lradius 54.7888 -0 0
lwrist 18.9061 0 0
lhand -7.60528 4.62152 0.0442698
lfingers 7.12502 -0 0
lthumb 18.2845 33.7272 0.0282459
rclavicle -1.0297e-013 -9.14409e-015 0
rhumerus -31.8361 35.695 -95.7842
rradius 63.1978 -0 0
rwrist 3.74956 0 0
rhand -22.8852 -24.6737 -0.136581
rfingers 7.12502 -0 0
rthumb 3.55297 -54.5721 -0.127959
826
root 2.74925 16.4365 24.6904 -0.135808 3.30813 -4.89712
lfemur -35.0514 -0.491025 -7.16305
ltibia 35.0405 -0 0
lfoot -5.99471 -3.45575 -0.0326872
ltoes 3.73171 -0 0
rfemur -2.73075 -4.48006 12.6359
rtibia 47.5659 -0 0
rfoot -3.72232 0.223753 1.17432
rtoes -28.975 0 0
lowerback -0.335253 5.59616 3.33406
upperback -0.588219 7.44257 0.243662
thorax -0.051588 3.72244 -1.53911
lowerneck -6.02922 -2.80899 2.90418
upperneck 4.24379 -4.08243 1.39638
head 2.3881 -1.92256 -0.223507
lclavicle -1.0297e-013 -9.14409e-015 0
lhumerus -55.0306 -4.88007 88.5733
lradius 54.5513 -0 0
lwrist 18.6857 0 0
lhand -7.31501 4.69624 0.0431341
lfingers 7.12502 -0 0
lthumb 18.5638 33.7767 0.0275213
rclavicle -1.0297e-013 -9.14409e-015 0
rhumerus -31.8766 35.1591 -94.8157
rradius 62.8562 -0 0
rwrist 3.83116 0 0
rhand -23.2015 -24.4621 -0.133076
rfingers 7.12502 -0 0
rthumb 3.24759 -54.3668 -0.124676
827
root 2.80319 16.4201 24.8657 -0.351285 2.78308 -4.90572
lfemur -34.6617 -0.547713 -7.17052
ltibia 34.8197 -0 0
lfoot -5.61502 -3.49905 -0.0315393
ltoes 3.26811 -0 0
rfemur -2.54008 -4.71927 12.2018
rtibia 48.4378 -0 0
rfoot -2.68856 0.797967 1.1328
rtoes -29.4978 0 0
lowerback -0.474936 5.63581 3.26843
upperback -0.623795 7.49128 0.309743
thorax -0.0242305 3.74664 -1.42374
lowerneck -6.02541 -2.82384 2.9527
upperneck 4.54988 -4.11254 1.37753
head 2.48659 -1.93241 -0.241959
lclavicle -1.0297e-013 -9.14409e-015 0
lhumerus -55.0938 -4.71081 88.3659
lradius 54.3138 -0 0
lwrist 18.4652 0 0
lhand -7.02475 4.77095 0.0416199
lfingers 7.12502 -0 0
lthumb 18.8431 33.8263 0.0265552
rclavicle -1.0297e-013 -9.14409e-015 0
rhumerus -31.9279 34.6238 -93.8531
rradius 62.5145 -0 0
rwrist 3.91277 0 0
rhand -23.5178 -24.2505 -0.128403
rfingers 7.12502 -0 0
rthumb 2.94224 -54.1615 -0.120298
